<svg xmlns="http://www.w3.org/2000/svg" viewBox="0 0 1200 760"><defs><linearGradient id="g" x1="0" y1="0" x2="1" y2="1"><stop stop-color="#10162f"/><stop offset="1" stop-color="#6d28d9"/></linearGradient><filter id="glow"><feGaussianBlur stdDeviation="18"/></filter></defs><rect width="1200" height="760" rx="32" fill="url(#g)"/><circle cx="920" cy="180" r="180" fill="#a78bfa" opacity=".18" filter="url(#glow)"/><g fill="none" stroke="#c4b5fd" stroke-width="3" opacity=".65"><path d="M155 310H420L530 220H760L870 310H1045"/><path d="M155 430H360L510 530H770L910 430H1045"/></g><g fill="#ede9fe"><circle cx="155" cy="310" r="12"/><circle cx="420" cy="310" r="12"/><circle cx="530" cy="220" r="12"/><circle cx="760" cy="220" r="12"/><circle cx="870" cy="310" r="12"/><circle cx="1045" cy="310" r="12"/><circle cx="155" cy="430" r="12"/><circle cx="360" cy="430" r="12"/><circle cx="510" cy="530" r="12"/><circle cx="770" cy="530" r="12"/><circle cx="910" cy="430" r="12"/><circle cx="1045" cy="430" r="12"/></g><text x="72" y="92" fill="#ddd6fe" font-family="Arial,sans-serif" font-size="22" letter-spacing="6">CLIENT SYSTEM</text><text x="72" y="650" fill="white" font-family="Arial,sans-serif" font-size="64" font-weight="700">Shaping Success Stories</text><text x="74" y="702" fill="#ddd6fe" font-family="Arial,sans-serif" font-size="24">43-node AI intake → CRM → documents → team alerts</text></svg>